HIERARCHY
ROOT Hips
{
	OFFSET 0.00000 0.00000 0.00000
	CHANNELS 6 Xposition Yposition Zposition Zrotation Yrotation Xrotation 
	JOINT LHipJoint
	{
		OFFSET 0 0 0
		CHANNELS 3 Zrotation Yrotation Xrotation
		JOINT LeftHip
		{
			OFFSET 1.38280 -1.96574 0.54427
			CHANNELS 3 Zrotation Yrotation Xrotation
			JOINT LeftKnee
			{
				OFFSET 2.72096 -7.47578 0.00000
				CHANNELS 3 Zrotation Yrotation Xrotation
				JOINT LeftAnkle
				{
					OFFSET 2.73041 -7.50176 0.00000
					CHANNELS 3 Zrotation Yrotation Xrotation
					JOINT LeftToe
					{
						OFFSET 0.16150 -0.44371 2.18031
						CHANNELS 3 Zrotation Yrotation Xrotation
						End Site
						{
							OFFSET 0.00000 -0.00000 1.12127
						}
					}
				}
			}
		}
	}
	JOINT RHipJoint
	{
		OFFSET 0 0 0
		CHANNELS 3 Zrotation Yrotation Xrotation
		JOINT RightHip
		{
			OFFSET -1.57224 -1.96575 0.54427
			CHANNELS 3 Zrotation Yrotation Xrotation
			JOINT RightKnee
			{
				OFFSET -2.95935 -8.13076 0.00000
				CHANNELS 3 Zrotation Yrotation Xrotation
				JOINT RightAnkle
				{
					OFFSET -2.52345 -6.93311 0.00000
					CHANNELS 3 Zrotation Yrotation Xrotation
					JOINT RightToe
					{
						OFFSET -0.04475 -0.10171 1.86688
						CHANNELS 3 Zrotation Yrotation Xrotation
						End Site
						{
							OFFSET -0.00000 -0.00000 0.95157
						}
					}
				}
			}
		}
	}
	JOINT lowerback
	{
		OFFSET 0 0 0
		CHANNELS 3 Zrotation Yrotation Xrotation
		JOINT Chest
		{
			OFFSET 0.00669 2.07367 0.09104
			CHANNELS 3 Zrotation Yrotation Xrotation
			JOINT Chest2
			{
				OFFSET -0.00664 2.06198 -0.04732
				CHANNELS 3 Zrotation Yrotation Xrotation
				JOINT lowerneck
				{
					OFFSET 0 0 0
					CHANNELS 3 Zrotation Yrotation Xrotation
					JOINT Neck
					{
						OFFSET -0.00021 1.49948 0.16345
						CHANNELS 3 Zrotation Yrotation Xrotation
						JOINT Head
						{
							OFFSET 0.06080 1.50567 -0.26702
							CHANNELS 3 Zrotation Yrotation Xrotation
							End Site
							{
								OFFSET 0.01726 1.56470 -0.11854
							}
						}
					}
				}
				JOINT LeftCollar
				{
					OFFSET 0 0 0
					CHANNELS 3 Zrotation Yrotation Xrotation
					JOINT LeftShoulder
					{
						OFFSET 3.14993 0.82932 -0.22488
CHANNELS 3 Zrotation Xrotation Yrotation
						JOINT LeftElbow
						{
OFFSET 0 -5.682360 -0.000000
CHANNELS 3 Zrotation Xrotation Yrotation
							JOINT LeftWrist
							{
OFFSET 0 -3.171120 0.000000
CHANNELS 3 Zrotation Xrotation Yrotation
								JOINT lhand
								{
									OFFSET 0 0 0
CHANNELS 3 Zrotation Xrotation Yrotation
									JOINT LFingers
									{
OFFSET 0 -0.632690 0.000000
CHANNELS 3 Zrotation Xrotation Yrotation
										End Site
										{
OFFSET 0 -0.510090 0.000000
										}
									}
								}
								JOINT LThumb
								{
OFFSET 0 0.000000 0.000000
CHANNELS 3 Zrotation Xrotation Yrotation
									End Site
									{
OFFSET 0 -0.517880 0.517880
									}
								}
							}
						}
					}
				}
				JOINT RightCollar
				{
					OFFSET 0 0 0
					CHANNELS 3 Zrotation Yrotation Xrotation
					JOINT RightShoulder
					{
						OFFSET -3.10571 0.91279 -0.33334
CHANNELS 3 Zrotation Xrotation Yrotation
						JOINT RightElbow
						{
OFFSET 0 -5.871200 -0.000000
CHANNELS 3 Zrotation Xrotation Yrotation
							JOINT RightWrist
							{
OFFSET 0 -3.375890 0.000000
CHANNELS 3 Zrotation Xrotation Yrotation
								JOINT rhand
								{
									OFFSET 0 0 0
CHANNELS 3 Zrotation Xrotation Yrotation
									JOINT RFingers
									{
OFFSET 0 -0.603260 0.000000
CHANNELS 3 Zrotation Xrotation Yrotation
										End Site
										{
OFFSET 0 -0.486360 0.000000
										}
									}
								}
								JOINT RThumb
								{
OFFSET 0 0.000000 0.000000
CHANNELS 3 Zrotation Xrotation Yrotation
									End Site
									{
OFFSET 0 -0.493790 0.493790
									}
								}
							}
						}
					}
				}
			}
		}
	}
}
MOTION
Frames: 11
Frame Time: 0.008333333333333333
14.712700 18.433100 -11.027000 -157.170000 -86.801100 162.997000 0.000000 0.000000 0.000000 -20.781000 -3.674800 -10.491500 1.855300 8.558000 24.422200 1.711000 -1.822100 -24.229400 0.184400 -2.765400 -7.626300 0.000000 0.000000 0.000000 15.187700 12.898600 -9.813100 -1.957100 -8.776100 25.097300 0.231600 8.507600 3.574400 -3.212600 -11.031500 32.386100 -1.701000 0.942200 -6.692400 0.064000 1.396600 1.094400 1.171600 0.642600 4.848600 -0.677100 0.771700 -16.740300 1.896300 0.522000 23.285300 0.836600 0.305700 10.189200 0.000000 -0.000000 0.000000 3.315200 2.281000 -30.642300 16.116800 -25.678800 3.696400 12.698500 -4.312000 -33.346400 0.000000 0.000000 0.000000 -7.125000 0.000000 0.000000 -23.943800 62.394400 10.440800 0.000000 -0.000000 0.000000 -1.499500 4.797600 9.666700 -17.396700 -27.377800 -4.268200 -17.968300 13.655400 -29.558200 0.000000 0.000000 0.000000 7.125000 0.000000 -0.000000 7.487700 -0.591400 7.629800
14.719324 18.436040 -10.697602 -153.172122 -84.297049 159.319561 0.000000 0.000000 0.000000 -20.338528 -4.339573 -11.609907 2.151926 9.175513 26.345929 2.073713 -2.242882 -26.645139 0.075259 -1.768836 -4.867329 0.000000 0.000000 0.000000 15.301762 12.779981 -13.582490 -2.713804 -10.215558 29.678706 0.143355 7.046926 4.912444 -2.408919 -9.670295 27.915553 -1.429564 0.476623 -6.476751 0.097929 0.746569 0.994861 0.981841 0.330251 4.645743 -0.740927 0.822697 -17.196773 2.191252 0.573502 22.567546 0.956501 0.370102 10.015840 0.000000 0.000000 0.000000 2.433380 -0.600696 -38.559918 16.284568 -25.904895 3.769466 10.599482 -5.351425 -33.532513 0.000000 0.000000 0.000000 -7.125000 0.000000 0.000000 -26.347448 62.030253 11.337965 0.000000 0.000000 0.000000 -3.115191 4.795337 10.168083 -18.772765 -29.135137 -4.919808 -19.606759 9.341446 -27.193161 0.000000 0.000000 0.000000 7.125000 0.000000 0.000000 6.270413 1.521421 6.138901
14.690387 18.417216 -10.462448 -155.808028 -81.568960 161.915294 0.000000 0.000000 0.000000 -20.474247 -4.071947 -11.490690 2.245890 9.360518 26.929696 2.502996 -2.228702 -29.369230 0.063545 -1.625591 -4.472120 0.000000 0.000000 0.000000 15.502085 14.137241 -19.426328 -4.285581 -12.530796 37.636990 0.132883 6.452602 2.579207 -2.728570 -10.242085 29.764423 -1.554680 0.241572 -5.855508 -0.093094 0.443597 1.303368 0.819856 0.177987 4.624226 -0.552087 1.148869 -17.663809 2.170159 1.027420 21.717161 0.975852 0.607402 9.794183 0.000000 0.000000 0.000000 3.464152 -3.223120 -43.419647 18.316934 -28.560913 4.699932 9.637019 -7.335953 -33.671621 0.000000 0.000000 0.000000 -7.125000 0.000000 0.000000 -27.490750 61.911250 11.792982 0.000000 0.000000 0.000000 -3.611772 5.107201 11.555739 -20.896905 -31.707751 -5.995705 -20.055451 5.981238 -27.588646 0.000000 0.000000 0.000000 7.125000 0.000000 0.000000 6.046416 1.036072 5.969592
14.564696 18.418299 -10.298040 -154.141609 -80.636488 160.421902 0.000000 0.000000 0.000000 -20.706766 -4.812654 -10.122533 2.057925 8.985630 25.750562 2.815172 -1.581899 -31.371683 0.093718 -1.974143 -5.434238 0.000000 0.000000 0.000000 15.869816 14.723557 -24.392144 -4.314235 -12.567090 37.769024 0.062414 4.490518 0.839635 -2.718968 -10.225522 29.710162 -1.776007 -0.227627 -5.428102 -0.101952 -0.172531 1.547533 0.875232 -0.135372 4.652710 -0.533125 1.457172 -18.166713 1.743537 1.542311 22.308935 0.903280 0.791394 10.094826 0.000000 0.000000 0.000000 4.322145 -5.479914 -43.047522 19.454580 -29.979682 5.256090 10.405795 -8.341220 -31.938990 0.000000 0.000000 0.000000 -7.125000 0.000000 0.000000 -25.067278 60.568989 9.875305 0.000000 0.000000 0.000000 -3.187986 6.193789 11.036514 -22.129781 -33.123455 -6.656679 -19.702558 5.297048 -27.132695 0.000000 0.000000 0.000000 7.125000 0.000000 0.000000 6.206748 1.566254 6.070752
14.337145 18.430702 -10.181227 -152.557285 -80.549116 159.379616 0.000000 0.000000 0.000000 -21.068606 -4.567828 -8.893575 1.770555 8.370809 23.846256 2.866843 -1.313693 -31.736937 0.163306 -2.603357 -7.176414 0.000000 0.000000 0.000000 15.939267 15.970757 -27.927514 -3.040601 -10.759527 31.474129 0.018403 2.649338 -0.221089 -2.698053 -10.189381 29.592194 -1.962818 -0.420010 -5.228540 -0.052421 -0.421875 1.661661 1.008599 -0.266234 4.667706 -0.588062 1.764755 -18.142045 1.216886 2.068644 23.656252 0.809854 0.937102 10.576743 0.000000 0.000000 0.000000 4.810186 -7.167015 -39.704364 19.093558 -29.534784 5.076917 11.526428 -6.606689 -32.749151 0.000000 0.000000 0.000000 -7.125000 0.000000 0.000000 -24.627218 61.565019 10.274608 0.000000 0.000000 0.000000 -2.052707 8.032560 8.469399 -21.495194 -32.401676 -6.313250 -19.862413 5.284552 -28.112569 0.000000 0.000000 0.000000 7.125000 0.000000 0.000000 6.219211 0.535426 6.197609
14.007009 18.459880 -10.094105 -151.478796 -81.076356 158.669392 0.000000 0.000000 0.000000 -21.651053 -4.605054 -7.085721 1.507128 7.753703 21.968352 2.948611 -1.097319 -32.257034 0.182599 -2.752210 -7.589668 0.000000 0.000000 0.000000 16.154448 16.899770 -30.244957 -1.815039 -8.469464 24.149409 0.000132 0.300837 -0.106935 -2.671245 -10.142798 29.440331 -2.034750 -0.581900 -4.804586 0.024646 -0.645174 1.918210 1.110256 -0.383273 4.703447 -0.513572 2.060160 -18.015564 0.769978 2.469996 26.133602 0.709914 1.005992 11.481878 0.000000 0.000000 0.000000 5.401543 -7.265865 -36.877489 18.514892 -28.811482 4.794804 13.532340 -6.149309 -32.790134 0.000000 0.000000 0.000000 -7.125000 0.000000 0.000000 -22.531308 62.101532 9.634058 0.000000 0.000000 0.000000 -1.157912 9.367211 5.367387 -18.999829 -29.418381 -5.030824 -17.956441 8.477201 -28.755248 0.000000 0.000000 0.000000 7.125000 0.000000 0.000000 7.409499 0.222137 7.443339
13.547040 18.432844 -10.047149 -148.639551 -82.186877 155.853412 0.000000 0.000000 0.000000 -22.211436 -3.460891 -4.772874 1.249274 7.086382 19.971490 2.771929 -1.165315 -31.234060 0.187183 -2.786142 -7.684072 0.000000 0.000000 0.000000 17.098341 16.891368 -31.828352 -1.247781 -7.082111 19.958965 0.004017 -1.721195 0.763011 -2.392066 -9.638926 27.815130 -2.032821 -0.823029 -4.155056 0.384181 -0.998529 2.350770 1.454885 -0.571022 4.804623 -0.208901 2.341506 -17.921874 0.363739 2.733389 29.173219 0.561332 1.007352 12.671784 0.000000 0.000000 0.000000 5.764415 -5.668027 -34.880546 17.746619 -27.831410 4.430321 14.039658 -5.690795 -32.239019 0.000000 0.000000 0.000000 -7.125000 0.000000 0.000000 -21.495282 61.723708 8.975751 0.000000 0.000000 0.000000 -0.740414 10.832990 2.133615 -17.368568 -27.341091 -4.255239 -15.361563 11.844547 -29.225847 0.000000 0.000000 0.000000 7.125000 0.000000 0.000000 8.970727 0.180728 9.054250
12.926497 18.347753 -10.028538 -146.335179 -84.018946 153.806067 0.000000 0.000000 0.000000 -23.027590 -2.253514 -2.842004 1.143327 6.789856 19.094412 2.603527 -2.676961 -29.868632 0.169704 -2.653500 -7.315585 0.000000 0.000000 0.000000 17.509290 16.630827 -32.775630 -1.106239 -6.682641 18.778509 0.012838 -3.226279 1.512668 -2.134275 -9.140382 26.235401 -1.951391 -1.073696 -3.874020 0.631560 -1.358893 2.731070 1.636005 -0.759744 5.061244 0.047003 2.334814 -17.673485 0.380440 2.533442 30.617695 0.493272 0.903153 13.222266 0.000000 0.000000 0.000000 5.820769 -3.235990 -33.290016 16.430517 -26.100839 3.833442 13.478649 -4.714687 -32.503553 0.000000 0.000000 0.000000 -7.125000 0.000000 0.000000 -22.330579 61.826662 9.398224 0.000000 0.000000 0.000000 -0.420548 12.214600 -0.672510 -16.953125 -26.795956 -4.066162 -14.754994 12.594431 -29.074758 0.000000 0.000000 0.000000 7.125000 0.000000 0.000000 9.311213 0.426917 9.366308
12.127562 18.207066 -10.054088 -137.562873 -86.386105 145.602549 0.000000 0.000000 0.000000 -23.514886 -1.075398 -0.605714 1.047505 6.508516 18.267326 2.281083 -4.785902 -27.492056 0.178779 -2.723425 -7.509637 0.000000 0.000000 0.000000 17.285985 17.029552 -32.532774 -1.146960 -6.800381 19.125249 0.006914 -3.661701 2.235473 -2.054665 -8.979129 25.730016 -1.498476 -1.313197 -3.787224 0.990167 -1.728914 2.917273 1.722144 -0.938853 5.220367 -0.164355 1.979831 -17.401189 0.506961 2.079574 30.030418 0.501510 0.719969 12.915734 0.000000 0.000000 0.000000 5.140656 -0.555034 -31.221975 14.717106 -23.750479 3.111108 13.754708 -3.132405 -32.307547 0.000000 0.000000 0.000000 -7.125000 0.000000 0.000000 -21.861020 61.716041 9.132602 0.000000 0.000000 0.000000 -0.517098 12.956831 -3.411846 -16.912941 -26.742781 -4.048110 -14.624204 12.999842 -28.589923 0.000000 0.000000 0.000000 7.125000 0.000000 0.000000 9.347600 0.930887 9.320002
11.115700 18.088884 -10.146231 -119.250312 -88.314564 128.312119 0.000000 0.000000 0.000000 -23.398308 1.015846 2.271560 0.848951 5.876544 16.426704 1.625786 -6.430760 -22.880035 0.526778 -4.650454 -12.914386 0.000000 0.000000 0.000000 16.774390 18.679817 -31.353229 -1.362994 -7.389167 20.873738 -0.023301 -5.997648 4.830278 -2.126881 -9.125189 26.187993 -0.993726 -1.125755 -4.182830 1.300586 -1.520276 2.769986 1.772656 -0.822004 5.277770 -0.722559 1.424090 -17.281837 1.007928 1.387143 28.752090 0.676550 0.463866 12.362949 0.000000 0.000000 0.000000 4.180438 2.645890 -28.247883 14.093997 -22.868859 2.864542 13.141406 -2.407681 -33.228774 0.000000 0.000000 0.000000 -7.125000 0.000000 0.000000 -23.357800 62.400795 10.173463 0.000000 0.000000 0.000000 -1.342855 13.377105 -4.010312 -16.884551 -26.705407 -4.035308 -15.116452 12.517820 -26.978260 0.000000 0.000000 0.000000 7.125000 0.000000 0.000000 8.930846 2.469213 8.644779
9.983407 18.100577 -10.269601 -114.794513 -88.630405 124.560628 0.000000 0.000000 0.000000 -22.515789 1.921332 4.094510 1.024376 6.438350 18.061698 1.028092 -5.623155 -18.109780 0.852066 -5.885157 -16.452078 0.000000 0.000000 0.000000 16.636974 20.798043 -30.655616 -2.075729 -9.021966 25.864113 -0.038463 -6.271695 5.356828 -2.990434 -10.679532 31.206535 0.571703 -0.435681 -3.896568 1.630031 -0.714954 2.679458 1.307412 -0.375104 4.971348 -0.715163 1.258737 -17.519328 0.995385 1.228629 27.886115 0.646866 0.425391 12.069638 0.000000 0.000000 0.000000 2.500710 5.891054 -23.291366 15.095338 -24.278736 3.265022 13.797904 -3.638733 -34.121291 0.000000 0.000000 0.000000 -7.125000 0.000000 0.000000 -23.515430 63.375700 10.784889 0.000000 0.000000 0.000000 -2.855743 11.399083 -4.078220 -16.075134 -25.622330 -3.678447 -15.995766 13.775766 -26.503947 0.000000 0.000000 0.000000 7.125000 0.000000 0.000000 8.367882 2.813982 8.034403
